HIERARCHY
ROOT Hips
{
  OFFSET 5.72205e-005 65.662 3.42586
  CHANNELS 6 Xposition Yposition Zposition Zrotation Xrotation Yrotation
  JOINT Chest
  {
    OFFSET 0 8.7983 -4.7612
    CHANNELS 6 Xposition Yposition Zposition Zrotation Xrotation Yrotation
    JOINT Chest2
    {
      OFFSET 0 8.0291 0.4195
      CHANNELS 6 Xposition Yposition Zposition Zrotation Xrotation Yrotation
      JOINT Chest3
      {
        OFFSET 0 9.9351 -2.2114
        CHANNELS 6 Xposition Yposition Zposition Zrotation Xrotation Yrotation
        JOINT Neck
        {
          OFFSET 0 22.3885 -0.4656
          CHANNELS 6 Xposition Yposition Zposition Zrotation Xrotation Yrotation
          JOINT Head
          {
            OFFSET -0.0001 12.643 3.4389
            CHANNELS 6 Xposition Yposition Zposition Zrotation Xrotation Yrotation
            End Site
            {
              OFFSET 0.0001 17.6655 0.5274
            }
          }
        }
        JOINT LeftCollar
        {
          OFFSET 2.2603 21.606 7.4023
          CHANNELS 6 Xposition Yposition Zposition Zrotation Xrotation Yrotation
          JOINT LeftShoulder
          {
            OFFSET 13.5163 -1.1332 -5.0146
            CHANNELS 6 Xposition Yposition Zposition Zrotation Xrotation Yrotation
            JOINT LeftElbow
            {
              OFFSET -0.0995 -28.05 -0.2431
              CHANNELS 6 Xposition Yposition Zposition Zrotation Xrotation Yrotation
              JOINT LeftWrist
              {
                OFFSET 0.0679 -23.3996 -0.1402
                CHANNELS 6 Xposition Yposition Zposition Zrotation Xrotation Yrotation
                JOINT LeftFinger1
                {
                  OFFSET 0.7932 -9.069 2.5189
                  CHANNELS 6 Xposition Yposition Zposition Zrotation Xrotation Yrotation
                  JOINT LeftFinger11
                  {
                    OFFSET -0.8272 -3.3923 0.5977
                    CHANNELS 6 Xposition Yposition Zposition Zrotation Xrotation Yrotation
                    JOINT LeftFinger12
                    {
                      OFFSET -0.5649 -2.3158 0.4082
                      CHANNELS 6 Xposition Yposition Zposition Zrotation Xrotation Yrotation
                      End Site
                      {
                        OFFSET -0.4919 -1.6479 0.2673
                      }
                    }
                  }
                }
                JOINT LeftFinger2
                {
                  OFFSET 0.9159 -9.2044 0.2193
                  CHANNELS 6 Xposition Yposition Zposition Zrotation Xrotation Yrotation
                  JOINT LeftFinger21
                  {
                    OFFSET 0.0117 -4.1944 -0.0248
                    CHANNELS 6 Xposition Yposition Zposition Zrotation Xrotation Yrotation
                    JOINT LeftFinger22
                    {
                      OFFSET 0.0071 -2.3249 -0.0142
                      CHANNELS 6 Xposition Yposition Zposition Zrotation Xrotation Yrotation
                      End Site
                      {
                        OFFSET -0.1475 -2.0882 0.0028
                      }
                    }
                  }
                }
                JOINT LeftFinger3
                {
                  OFFSET 0.6113 -8.7231 -2.0637
                  CHANNELS 6 Xposition Yposition Zposition Zrotation Xrotation Yrotation
                  JOINT LeftFinger31
                  {
                    OFFSET -0.1927 -3.8059 -0.2383
                    CHANNELS 6 Xposition Yposition Zposition Zrotation Xrotation Yrotation
                    JOINT LeftFinger32
                    {
                      OFFSET -0.1091 -2.1688 -0.1362
                      CHANNELS 6 Xposition Yposition Zposition Zrotation Xrotation Yrotation
                      End Site
                      {
                        OFFSET -0.2358 -1.9176 -0.0906
                      }
                    }
                  }
                }
                JOINT LeftFinger4
                {
                  OFFSET -0.6151 -8.0947 -3.5641
                  CHANNELS 6 Xposition Yposition Zposition Zrotation Xrotation Yrotation
                  JOINT LeftFinger41
                  {
                    OFFSET -0.4882 -2.341 -0.6462
                    CHANNELS 6 Xposition Yposition Zposition Zrotation Xrotation Yrotation
                    JOINT LeftFinger42
                    {
                      OFFSET -0.3575 -1.7167 -0.4742
                      CHANNELS 6 Xposition Yposition Zposition Zrotation Xrotation Yrotation
                      End Site
                      {
                        OFFSET -0.4187 -1.5237 -0.3496
                      }
                    }
                  }
                }
                JOINT LeftFinger0
                {
                  OFFSET -1.42 -1.8761 1.4223
                  CHANNELS 6 Xposition Yposition Zposition Zrotation Xrotation Yrotation
                  JOINT LeftFinger01
                  {
                    OFFSET -1.1471 -3.4929 2.6334
                    CHANNELS 6 Xposition Yposition Zposition Zrotation Xrotation Yrotation
                    JOINT LeftFinger02
                    {
                      OFFSET -0.823 -2.3 1.6571
                      CHANNELS 6 Xposition Yposition Zposition Zrotation Xrotation Yrotation
                      End Site
                      {
                        OFFSET -0.5822 -1.6914 1.1582
                      }
                    }
                  }
                }
              }
            }
          }
        }
        JOINT RightCollar
        {
          OFFSET -2.2603 21.606 7.4023
          CHANNELS 6 Xposition Yposition Zposition Zrotation Xrotation Yrotation
          JOINT RightShoulder
          {
            OFFSET -13.5187 -1.1334 -5.0155
            CHANNELS 6 Xposition Yposition Zposition Zrotation Xrotation Yrotation
            JOINT RightElbow
            {
              OFFSET 0.0994 -28.0499 -0.2431
              CHANNELS 6 Xposition Yposition Zposition Zrotation Xrotation Yrotation
              JOINT RightWrist
              {
                OFFSET -0.0679 -23.3996 -0.1402
                CHANNELS 6 Xposition Yposition Zposition Zrotation Xrotation Yrotation
                JOINT RightFinger1
                {
                  OFFSET -0.7932 -9.0691 2.5189
                  CHANNELS 6 Xposition Yposition Zposition Zrotation Xrotation Yrotation
                  JOINT RightFinger11
                  {
                    OFFSET 0.8272 -3.3923 0.5977
                    CHANNELS 6 Xposition Yposition Zposition Zrotation Xrotation Yrotation
                    JOINT RightFinger12
                    {
                      OFFSET 0.565 -2.3158 0.4082
                      CHANNELS 6 Xposition Yposition Zposition Zrotation Xrotation Yrotation
                      End Site
                      {
                        OFFSET 0.4919 -1.6479 0.2673
                      }
                    }
                  }
                }
                JOINT RightFinger2
                {
                  OFFSET -0.916 -9.2044 0.2193
                  CHANNELS 6 Xposition Yposition Zposition Zrotation Xrotation Yrotation
                  JOINT RightFinger21
                  {
                    OFFSET -0.0117 -4.1944 -0.0248
                    CHANNELS 6 Xposition Yposition Zposition Zrotation Xrotation Yrotation
                    JOINT RightFinger22
                    {
                      OFFSET -0.0071 -2.3249 -0.0142
                      CHANNELS 6 Xposition Yposition Zposition Zrotation Xrotation Yrotation
                      End Site
                      {
                        OFFSET 0.1475 -2.0882 0.0028
                      }
                    }
                  }
                }
                JOINT RightFinger3
                {
                  OFFSET -0.6113 -8.7231 -2.0637
                  CHANNELS 6 Xposition Yposition Zposition Zrotation Xrotation Yrotation
                  JOINT RightFinger31
                  {
                    OFFSET 0.1927 -3.8059 -0.2383
                    CHANNELS 6 Xposition Yposition Zposition Zrotation Xrotation Yrotation
                    JOINT RightFinger32
                    {
                      OFFSET 0.1091 -2.1688 -0.1362
                      CHANNELS 6 Xposition Yposition Zposition Zrotation Xrotation Yrotation
                      End Site
                      {
                        OFFSET 0.2358 -1.9176 -0.0906
                      }
                    }
                  }
                }
                JOINT RightFinger4
                {
                  OFFSET 0.6151 -8.0947 -3.564
                  CHANNELS 6 Xposition Yposition Zposition Zrotation Xrotation Yrotation
                  JOINT RightFinger41
                  {
                    OFFSET 0.4882 -2.341 -0.6462
                    CHANNELS 6 Xposition Yposition Zposition Zrotation Xrotation Yrotation
                    JOINT RightFinger42
                    {
                      OFFSET 0.3574 -1.7166 -0.4742
                      CHANNELS 6 Xposition Yposition Zposition Zrotation Xrotation Yrotation
                      End Site
                      {
                        OFFSET 0.4187 -1.5237 -0.3496
                      }
                    }
                  }
                }
                JOINT RightFinger0
                {
                  OFFSET 1.4199 -1.8761 1.4221
                  CHANNELS 6 Xposition Yposition Zposition Zrotation Xrotation Yrotation
                  JOINT RightFinger01
                  {
                    OFFSET 1.1472 -3.4929 2.6336
                    CHANNELS 6 Xposition Yposition Zposition Zrotation Xrotation Yrotation
                    JOINT RightFinger02
                    {
                      OFFSET 0.8229 -2.3 1.6571
                      CHANNELS 6 Xposition Yposition Zposition Zrotation Xrotation Yrotation
                      End Site
                      {
                        OFFSET 0.5822 -1.6914 1.1582
                      }
                    }
                  }
                }
              }
            }
          }
        }
      }
    }
  }
  JOINT RightHip
  {
    OFFSET -9.412 3.9771 -0.7758
    CHANNELS 6 Xposition Yposition Zposition Zrotation Xrotation Yrotation
    JOINT RightKnee
    {
      OFFSET -0.7531 -40.938 0
      CHANNELS 6 Xposition Yposition Zposition Zrotation Xrotation Yrotation
      JOINT RightAnkle
      {
        OFFSET 0 -40.1986 0
        CHANNELS 6 Xposition Yposition Zposition Zrotation Xrotation Yrotation
        JOINT RightToe
        {
          OFFSET 0 -4.4182 9.239
          CHANNELS 6 Xposition Yposition Zposition Zrotation Xrotation Yrotation
          End Site
          {
            OFFSET 0 0 6.1981
          }
        }
      }
    }
  }
  JOINT LeftHip
  {
    OFFSET 9.4119 3.9773 -0.7758
    CHANNELS 6 Xposition Yposition Zposition Zrotation Xrotation Yrotation
    JOINT LeftKnee
    {
      OFFSET 0.7532 -40.9383 0
      CHANNELS 6 Xposition Yposition Zposition Zrotation Xrotation Yrotation
      JOINT LeftAnkle
      {
        OFFSET 0 -40.1986 0
        CHANNELS 6 Xposition Yposition Zposition Zrotation Xrotation Yrotation
        JOINT LeftToe
        {
          OFFSET 0 -4.4182 9.239
          CHANNELS 6 Xposition Yposition Zposition Zrotation Xrotation Yrotation
          End Site
          {
            OFFSET 0 0 6.1981
          }
        }
      }
    }
  }
}
MOTION
Frames:	4
Frame Time:	0.0333333
7.95842 5.48551 7.89016 92.0831 0.254834 -179.705 0 8.7983 -4.7612 0.455844 0.893906 -0.330894 8.88178e-016 8.0291 0.4195 0.917024 1.78513 -0.669009 8.88178e-016 9.9351 -2.2114 0.917005 1.78513 -0.669009 0 22.3885 -0.4656 9.03901 16.7032 -2.70322 -0.0001 12.643 3.4389 -3.32382e-006 15.4505 -1.35734e-005 2.2603 21.606 7.4023 -10.684 -9.05136 -25.355 13.5163 -1.1332 -5.0146 27.86 -19.8735 5.39861 -0.0995 -28.05 -0.2431 -35.4032 -60.1556 -22.3266 0.0679 -23.3996 -0.1402 -55.7148 1.2646 -1.53225 0.7932 -9.069 2.5189 2.11127e-006 2.19004e-007 3.12446e-007 -0.8272 -3.3923 0.5977 -4.64479e-006 -4.07081e-006 -6.87382e-007 -0.5649 -2.3158 0.4082 -6.73962e-006 -2.1169e-006 -1.40409e-006 0.9159 -9.2044 0.2193 2.11127e-006 2.19004e-007 3.12446e-007 0.0117 -4.1944 -0.0248 -0.0127995 0.00232452 9.62806e-005 0.0071 -2.3249 -0.0142 2.11125e-006 3.49831e-007 3.12532e-007 0.6113 -8.7231 -2.0637 2.11127e-006 2.19004e-007 3.12446e-007 -0.1927 -3.8059 -0.2383 -0.0160823 0.0030032 0.00086753 -0.1091 -2.1688 -0.1362 -3.13035e-006 6.15485e-006 6.79967e-006 -0.6151 -8.0947 -3.5641 2.11127e-006 2.19004e-007 3.12446e-007 -0.4882 -2.341 -0.6462 -0.0125922 0.00313329 0.00283239 -0.3575 -1.7167 -0.4742 -6.30231e-006 -5.9113e-006 -1.74588e-006 -1.42 -1.8761 1.4223 2.11127e-006 2.19004e-007 3.12446e-007 -1.1471 -3.4929 2.6334 -4.64479e-006 -4.07081e-006 -6.87382e-007 -0.823 -2.3 1.6571 -6.73962e-006 -2.1169e-006 -1.40409e-006 -2.2603 21.606 7.4023 -15.6417 -12.7237 -8.04744 -13.5187 -1.1334 -5.0155 -29.2085 -45.6702 -3.71728 0.0994 -28.0499 -0.2431 75.9082 -60.3444 11.3913 -0.0679 -23.3996 -0.1402 45.3904 -4.9267 -10.5964 -0.7932 -9.0691 2.5189 -7.95139e-016 -1.54058e-015 -1.49089e-016 0.8272 -3.3923 0.5977 3.97569e-016 1.63997e-015 -2.48481e-016 0.565 -2.3158 0.4082 -3.97569e-016 -1.55922e-015 9.93923e-017 -0.916 -9.2044 0.2193 -7.95139e-016 -1.54058e-015 -1.49089e-016 -0.0117 -4.1944 -0.0248 0.0129494 0.00230689 -9.59983e-005 -0.0071 -2.3249 -0.0142 3.97569e-016 -4.6528e-015 -2.48481e-016 -0.6113 -8.7231 -2.0637 -7.95139e-016 -1.54058e-015 -1.49089e-016 0.1927 -3.8059 -0.2383 0.0163076 0.0030285 -0.00086316 0.1091 -2.1688 -0.1362 -7.95139e-016 2.24565e-015 -0 0.6151 -8.0947 -3.564 -7.95139e-016 -1.54058e-015 -1.49089e-016 0.4882 -2.341 -0.6462 0.0145722 0.00366927 -0.00324706 0.3574 -1.7166 -0.4742 -1.27222e-014 -5.18393e-015 -1.73937e-015 1.4199 -1.8761 1.4221 -7.95139e-016 -1.54058e-015 -1.49089e-016 1.1472 -3.4929 2.6336 3.97569e-016 1.63997e-015 -2.48481e-016 0.8229 -2.3 1.6571 -3.97569e-016 -1.55922e-015 9.93923e-017 -9.412 3.9771 -0.7758 -18.8549 -34.9325 -15.1234 -0.7531 -40.938 -3.55271e-015 88.8644 28.4573 -101.733 -5.32907e-015 -40.1986 7.10543e-015 5.16638 15.6353 6.93655 3.55271e-015 -4.4182 9.239 -2.46823e-006 -7.57444e-006 7.94188e-006 9.4119 3.9773 -0.7758 6.60603 0.685075 8.66349 0.7532 -40.9383 0 -2.23391 57.6048 -0.674921 -8.88179e-016 -40.1986 1.42109e-014 3.30711 32.2006 1.31513 -8.88179e-016 -4.4182 9.239 -7.59718e-034 -9.93923e-017 -4.37947e-016 
7.99622 5.62981 8.14728 92.2127 0.280786 -179.617 8.88179e-016 8.7983 -4.7612 0.453748 1.08231 -0.335365 0 8.0291 0.4195 0.914085 2.16193 -0.679478 8.88178e-016 9.9351 -2.2114 0.914068 2.16192 -0.679474 -8.88178e-016 22.3885 -0.4656 8.52219 15.3444 -2.45122 -0.0001 12.643 3.4389 -3.53517e-006 14.755 5.78091e-006 2.2603 21.606 7.4023 -10.6347 -9.87853 -24.7574 13.5163 -1.1332 -5.0146 27.4555 -20.5615 4.90987 -0.0995 -28.05 -0.2431 -34.8468 -57.0949 -21.1919 0.0679 -23.3996 -0.1402 -54.9266 1.02848 -2.03483 0.7932 -9.069 2.5189 6.95746e-016 -3.27684e-015 -1.35174e-014 -0.8272 -3.3923 0.5977 8.94531e-016 3.41661e-017 -1.27222e-014 -0.5649 -2.3158 0.4082 7.95139e-016 -3.02525e-015 -1.35174e-014 0.9159 -9.2044 0.2193 6.95746e-016 -3.27684e-015 -1.35174e-014 0.0117 -4.1944 -0.0248 -0.0128344 0.00232952 8.54351e-005 0.0071 -2.3249 -0.0142 -4.96962e-017 4.26145e-015 -1.59028e-015 0.6113 -8.7231 -2.0637 6.95746e-016 -3.27684e-015 -1.35174e-014 -0.1927 -3.8059 -0.2383 -0.0160322 0.00298503 0.000856265 -0.1091 -2.1688 -0.1362 2.98177e-016 9.47333e-016 -7.95139e-016 -0.6151 -8.0947 -3.5641 6.95746e-016 -3.27684e-015 -1.35174e-014 -0.4882 -2.341 -0.6462 -0.0125994 0.00313371 0.00282762 -0.3575 -1.7167 -0.4742 9.93923e-017 2.24254e-015 7.95139e-016 -1.42 -1.8761 1.4223 6.95746e-016 -3.27684e-015 -1.35174e-014 -1.1471 -3.4929 2.6334 8.94531e-016 3.41661e-017 -1.27222e-014 -0.823 -2.3 1.6571 7.95139e-016 -3.02525e-015 -1.35174e-014 -2.2603 21.606 7.4023 -15.5503 -13.4263 -7.06329 -13.5187 -1.1334 -5.0155 -29.6047 -45.7545 -4.05377 0.0994 -28.0499 -0.2431 75.0786 -60.4032 10.6421 -0.0679 -23.3996 -0.1402 45.0157 -4.76503 -10.1204 -0.7932 -9.0691 2.5189 7.95139e-016 5.7337e-015 3.97569e-016 0.8272 -3.3923 0.5977 3.97569e-016 7.33018e-015 6.95746e-016 0.565 -2.3158 0.4082 -3.97569e-016 5.75544e-015 5.46658e-016 -0.916 -9.2044 0.2193 7.95139e-016 5.7337e-015 3.97569e-016 -0.0117 -4.1944 -0.0248 0.0129577 0.00232325 -8.52819e-005 -0.0071 -2.3249 -0.0142 -1.19271e-015 1.03741e-015 -1.98785e-016 -0.6113 -8.7231 -2.0637 7.95139e-016 5.7337e-015 3.97569e-016 0.1927 -3.8059 -0.2383 0.0163663 0.00305342 -0.000881481 0.1091 -2.1688 -0.1362 3.97569e-016 -7.54139e-015 3.47873e-016 0.6151 -8.0947 -3.564 7.95139e-016 5.7337e-015 3.97569e-016 0.4882 -2.341 -0.6462 0.0145798 0.00368395 -0.00327175 0.3574 -1.7166 -0.4742 -3.97569e-016 -2.53761e-015 -4.47266e-016 1.4199 -1.8761 1.4221 7.95139e-016 5.7337e-015 3.97569e-016 1.1472 -3.4929 2.6336 3.97569e-016 7.33018e-015 6.95746e-016 0.8229 -2.3 1.6571 -3.97569e-016 5.75544e-015 5.46658e-016 -9.412 3.9771 -0.7758 -18.7906 -35.169 -15.1616 -0.7531 -40.938 3.55271e-015 88.862 28.4572 -101.73 0 -40.1986 0 5.05484 15.662 6.67459 0 -4.4182 9.239 8.57962e-008 8.81262e-007 9.17995e-006 9.4119 3.9773 -0.7758 6.602 0.334347 8.70013 0.7532 -40.9383 0 -2.15764 57.9512 -0.726883 -8.88178e-016 -40.1986 0 3.29775 32.1875 1.32568 0 -4.4182 9.239 1.35872e-005 -6.18517e-009 3.8231e-008 
8.02962 5.7627 8.37601 92.3597 0.310429 -179.518 0 8.7983 -4.7612 0.451909 1.25088 -0.339373 0 8.0291 0.4195 0.911557 2.49902 -0.688852 0 9.9351 -2.2114 0.911566 2.49902 -0.688852 0 22.3885 -0.4656 8.0668 14.125 -2.23799 -0.0001 12.643 3.4389 -7.31017e-006 14.1335 5.48368e-006 2.2603 21.606 7.4023 -10.5839 -10.6181 -24.2207 13.5163 -1.1332 -5.0146 27.0858 -21.1735 4.46585 -0.0995 -28.05 -0.2431 -34.4402 -54.3519 -20.2492 0.0679 -23.3996 -0.1402 -54.2238 0.811116 -2.48138 0.7932 -9.069 2.5189 -1.49089e-016 1.05604e-015 -0 -0.8272 -3.3923 0.5977 -4.96962e-017 1.05915e-015 3.97569e-016 -0.5649 -2.3158 0.4082 -9.93923e-017 -5.34234e-016 -0 0.9159 -9.2044 0.2193 -1.49089e-016 1.05604e-015 -0 0.0117 -4.1944 -0.0248 -0.0128595 0.00232761 8.11036e-005 0.0071 -2.3249 -0.0142 1.98785e-016 3.57191e-016 -7.95139e-016 0.6113 -8.7231 -2.0637 -1.49089e-016 1.05604e-015 -0 -0.1927 -3.8059 -0.2383 -0.0160364 0.00299027 0.000861051 -0.1091 -2.1688 -0.1362 -9.93923e-017 -3.91357e-016 7.95139e-016 -0.6151 -8.0947 -3.5641 -1.49089e-016 1.05604e-015 -0 -0.4882 -2.341 -0.6462 -0.0125838 0.00313243 0.00282483 -0.3575 -1.7167 -0.4742 -4.96962e-017 -9.16273e-016 7.95139e-016 -1.42 -1.8761 1.4223 -1.49089e-016 1.05604e-015 -0 -1.1471 -3.4929 2.6334 -4.96962e-017 1.05915e-015 3.97569e-016 -0.823 -2.3 1.6571 -9.93923e-017 -5.34234e-016 -0 -2.2603 21.606 7.4023 -15.4586 -14.0538 -6.17907 -13.5187 -1.1334 -5.0155 -29.9606 -45.8281 -4.35614 0.0994 -28.0499 -0.2431 74.3359 -60.4506 9.97065 -0.0679 -23.3996 -0.1402 44.6797 -4.62339 -9.6942 -0.7932 -9.0691 2.5189 -3.97569e-016 8.30858e-015 3.97569e-016 0.8272 -3.3923 0.5977 -3.97569e-016 8.30237e-015 3.47873e-016 0.565 -2.3158 0.4082 1.19271e-015 9.88643e-015 7.45443e-016 -0.916 -9.2044 0.2193 -3.97569e-016 8.30858e-015 3.97569e-016 -0.0117 -4.1944 -0.0248 0.0129637 0.00232254 -8.181e-005 -0.0071 -2.3249 -0.0142 1.19271e-015 2.04686e-015 -3.97569e-016 -0.6113 -8.7231 -2.0637 -3.97569e-016 8.30858e-015 3.97569e-016 0.1927 -3.8059 -0.2383 0.0163127 0.00302197 -0.000860649 0.1091 -2.1688 -0.1362 3.97569e-016 -3.72721e-016 -1.49089e-016 0.6151 -8.0947 -3.564 -3.97569e-016 8.30858e-015 3.97569e-016 0.4882 -2.341 -0.6462 0.0145851 0.00367677 -0.003249 0.3574 -1.7166 -0.4742 -1.20061e-005 1.28511e-005 -8.44912e-006 1.4199 -1.8761 1.4221 -3.97569e-016 8.30858e-015 3.97569e-016 1.1472 -3.4929 2.6336 -3.97569e-016 8.30237e-015 3.47873e-016 0.8229 -2.3 1.6571 1.19271e-015 9.88643e-015 7.45443e-016 -9.412 3.9771 -0.7758 -18.734 -35.3801 -15.1957 -0.7531 -40.938 -1.77636e-015 88.8604 28.4572 -101.728 1.77636e-015 -40.1986 0 4.95551 15.6868 6.44112 -1.77636e-015 -4.4182 9.239 4.77083e-015 -1.49206e-006 -0 9.4119 3.9773 -0.7758 6.59882 0.0206046 8.73285 0.7532 -40.9383 0 -2.0888 58.262 -0.774241 0 -40.1986 0 3.2895 32.1748 1.33512 -4.44089e-016 -4.4182 9.239 3.46862e-007 -1.86985e-005 1.46991e-005 
8.06263 5.90043 8.60365 92.5445 0.348049 -179.393 0 8.7983 -4.7612 0.450066 1.41959 -0.343366 0 8.0291 0.4195 0.909085 2.83642 -0.6982 -8.88178e-016 9.9351 -2.2114 0.90909 2.83643 -0.698203 0 22.3885 -0.4656 7.61746 12.9014 -2.0354 -0.0001 12.643 3.4389 -2.87281e-006 13.5117 5.68325e-006 2.2603 21.606 7.4023 -10.5258 -11.3578 -23.6815 13.5163 -1.1332 -5.0146 26.7103 -21.7833 4.01577 -0.0995 -28.05 -0.2431 -34.1347 -51.5978 -19.3968 0.0679 -23.3996 -0.1402 -53.5222 0.58812 -2.92533 0.7932 -9.069 2.5189 1.32236e-005 0.000235336 -1.26666e-006 -0.8272 -3.3923 0.5977 -6.79419e-006 -0.000197775 9.28865e-006 -0.5649 -2.3158 0.4082 -2.10414e-006 -1.45314e-005 -3.58168e-007 0.9159 -9.2044 0.2193 1.32236e-005 0.000235336 -1.26666e-006 0.0117 -4.1944 -0.0248 -0.0128129 0.00201723 8.58194e-005 0.0071 -2.3249 -0.0142 -2.10413e-006 -1.50166e-005 -3.5825e-007 0.6113 -8.7231 -2.0637 1.32236e-005 0.000235336 -1.26666e-006 -0.1927 -3.8059 -0.2383 -0.0160489 0.00292853 0.00085869 -0.1091 -2.1688 -0.1362 -4.62907e-006 1.83124e-005 -7.88223e-007 -0.6151 -8.0947 -3.5641 1.32236e-005 0.000235336 -1.26666e-006 -0.4882 -2.341 -0.6462 -0.0125783 0.0026866 0.00283518 -0.3575 -1.7167 -0.4742 4.06678e-023 -2.34434e-005 9.93923e-017 -1.42 -1.8761 1.4223 1.32236e-005 0.000235336 -1.26666e-006 -1.1471 -3.4929 2.6334 -6.79419e-006 -0.000197775 9.28865e-006 -0.823 -2.3 1.6571 -2.10414e-006 -1.45314e-005 -3.58168e-007 -2.2603 21.606 7.4023 -15.3565 -14.6807 -5.29005 -13.5187 -1.1334 -5.0155 -30.3169 -45.9006 -4.65915 0.0994 -28.0499 -0.2431 73.5902 -60.4936 9.29672 -0.0679 -23.3996 -0.1402 44.3426 -4.48419 -9.26707 -0.7932 -9.0691 2.5189 -3.97569e-016 -2.45375e-015 -1.98785e-016 0.8272 -3.3923 0.5977 -3.97569e-016 -2.45685e-015 -2.48481e-016 0.565 -2.3158 0.4082 -3.97569e-016 -2.45685e-015 -2.48481e-016 -0.916 -9.2044 0.2193 -3.97569e-016 -2.45375e-015 -1.98785e-016 -0.0117 -4.1944 -0.0248 0.0129503 0.00232919 -0.0001014 -0.0071 -2.3249 -0.0142 2.52848e-006 -1.05231e-006 1.00079e-005 -0.6113 -8.7231 -2.0637 -3.97569e-016 -2.45375e-015 -1.98785e-016 0.1927 -3.8059 -0.2383 0.0163116 0.0030493 -0.000882684 0.1091 -2.1688 -0.1362 7.95139e-016 -3.2582e-015 -3.97569e-016 0.6151 -8.0947 -3.564 -3.97569e-016 -2.45375e-015 -1.98785e-016 0.4882 -2.341 -0.6462 0.0146122 0.00368674 -0.00328147 0.3574 -1.7166 -0.4742 -3.5415e-007 7.60318e-006 9.67159e-006 1.4199 -1.8761 1.4221 -3.97569e-016 -2.45375e-015 -1.98785e-016 1.1472 -3.4929 2.6336 -3.97569e-016 -2.45685e-015 -2.48481e-016 0.8229 -2.3 1.6571 -3.97569e-016 -2.45685e-015 -2.48481e-016 -9.412 3.9771 -0.7758 -18.6784 -35.5912 -15.2298 -0.7531 -40.938 -5.32907e-015 88.8592 28.4572 -101.727 0 -40.1986 0 4.85642 15.7124 6.20809 0 -4.4182 9.239 -1.62336e-006 -8.68732e-007 1.7653e-007 9.4119 3.9773 -0.7758 6.59589 -0.295502 8.76555 0.7532 -40.9383 1.77636e-015 -2.01911 58.5764 -0.822224 -8.88179e-016 -40.1986 0 3.28145 32.1607 1.34462 0 -4.4182 9.239 1.44468e-033 1.36664e-016 -6.05672e-016 
